<svg width="60" height="60" viewBox="0 0 60 60" fill="none" xmlns="http://www.w3.org/2000/svg">
<path d="M27.1494 19.228H27.6494V18.728V17.359V17.3584C27.6482 16.3313 26.8163 15.5 25.792 15.5H25.788C24.7591 15.5 23.924 16.3351 23.924 17.364C23.924 18.3929 24.7591 19.228 25.788 19.228H27.1494ZM19.2507 32.8666V32.3666H18.7507H17.3873C16.3587 32.3666 15.5227 33.2014 15.5227 34.2306C15.5227 35.2595 16.3578 36.0946 17.3867 36.0946C18.4156 36.0946 19.2507 35.2595 19.2507 34.2306V32.8666ZM27.6493 34.2315V34.231C27.6482 33.2022 26.8132 32.3693 25.788 32.3693C24.7604 32.3693 23.9266 33.2031 23.9266 34.2306V42.6386C23.9266 43.6662 24.7604 44.4999 25.788 44.4999C26.8155 44.4999 27.6493 43.6662 27.6493 42.6386V34.2315ZM40.7493 27.16V27.66H41.2493H42.6106C43.6395 27.66 44.4746 26.8249 44.4746 25.796C44.4746 24.7671 43.6395 23.932 42.6106 23.932H42.6066C41.5804 23.932 40.7493 24.7631 40.7493 25.7893V27.16ZM32.8507 40.7747H32.3507V41.2747V42.6377V42.6383C32.3518 43.6649 33.1846 44.4973 34.212 44.4973C35.2396 44.4973 36.0734 43.6636 36.0734 42.636C36.0734 41.6084 35.2396 40.7747 34.212 40.7747H32.8507ZM25.792 14.5C27.369 14.5 28.6482 15.7787 28.6494 17.3577V20.228H25.788C24.2068 20.228 22.924 18.9452 22.924 17.364C22.924 15.7828 24.2068 14.5 25.788 14.5H25.792ZM14.5227 34.2306C14.5227 32.6495 15.8055 31.3666 17.3867 31.3666H20.2507V34.2306C20.2507 35.8118 18.9679 37.0946 17.3867 37.0946C15.8055 37.0946 14.5227 35.8118 14.5227 34.2306ZM28.6493 34.231V42.6386C28.6493 44.2185 27.3678 45.4999 25.788 45.4999C24.2081 45.4999 22.9266 44.2185 22.9266 42.6386V34.2306C22.9266 32.6508 24.2081 31.3693 25.788 31.3693C27.3663 31.3693 28.6482 32.6507 28.6493 34.231ZM17.364 27.6613H25.788C26.8169 27.6613 27.652 26.8262 27.652 25.7973C27.652 24.7684 26.8169 23.9333 25.788 23.9333H17.364C16.3351 23.9333 15.5 24.7684 15.5 25.7973C15.5 26.8262 16.3351 27.6613 17.364 27.6613ZM25.788 28.6613H17.364C15.7828 28.6613 14.5 27.3785 14.5 25.7973C14.5 24.2161 15.7828 22.9333 17.364 22.9333H25.788C27.3692 22.9333 28.652 24.2161 28.652 25.7973C28.652 27.3785 27.3692 28.6613 25.788 28.6613ZM45.4746 25.796C45.4746 27.3772 44.1918 28.66 42.6106 28.66H39.7493V25.7893C39.7493 24.2108 41.0281 22.932 42.6066 22.932H42.6106C44.1918 22.932 45.4746 24.2148 45.4746 25.796ZM32.352 17.364V25.7973C32.352 26.8249 33.1857 27.6586 34.2133 27.6586C35.2409 27.6586 36.0746 26.8249 36.0746 25.7973V17.364C36.0746 16.3364 35.2409 15.5027 34.2133 15.5027C33.1857 15.5027 32.352 16.3364 32.352 17.364ZM31.352 25.7973V17.364C31.352 15.7841 32.6334 14.5027 34.2133 14.5027C35.7931 14.5027 37.0746 15.7841 37.0746 17.364V25.7973C37.0746 27.3772 35.7931 28.6586 34.2133 28.6586C32.6334 28.6586 31.352 27.3772 31.352 25.7973ZM31.3507 42.6383V39.7747H34.212C35.7919 39.7747 37.0734 41.0561 37.0734 42.636C37.0734 44.2158 35.7919 45.4973 34.212 45.4973C32.6321 45.4973 31.3518 44.217 31.3507 42.6383ZM42.636 32.3666H34.2121C33.1831 32.3666 32.3481 33.2017 32.3481 34.2306C32.3481 35.2595 33.1831 36.0946 34.2121 36.0946H42.636C43.665 36.0946 44.5 35.2595 44.5 34.2306C44.5 33.2017 43.665 32.3666 42.636 32.3666ZM34.2121 31.3666H42.636C44.2172 31.3666 45.5 32.6495 45.5 34.2306C45.5 35.8118 44.2172 37.0946 42.636 37.0946H34.2121C32.6309 37.0946 31.3481 35.8118 31.3481 34.2306C31.3481 32.6495 32.6309 31.3666 34.2121 31.3666Z" fill="white" stroke="white"/>
</svg>
